<?xml version="1.0" encoding="UTF-8" standalone="no"?>
<!DOCTYPE svg PUBLIC "-//W3C//DTD SVG 1.1//EN"
 "http://www.w3.org/Graphics/SVG/1.1/DTD/svg11.dtd">
<!-- Generated by graphviz version 2.36.0 (20140111.2315)
 -->
<!-- Title: %3 Pages: 1 -->
<svg width="169pt" height="206pt"
 viewBox="0.00 0.00 169.00 206.00" xmlns="http://www.w3.org/2000/svg" xmlns:xlink="http://www.w3.org/1999/xlink">
<g id="graph0" class="graph" transform="scale(1 1) rotate(0) translate(4 202)">
<title>%3</title>
<polygon fill="white" stroke="none" points="-4,4 -4,-202 165,-202 165,4 -4,4"/>
<!-- A -->
<g id="node1" class="node"><title>A</title>
<ellipse fill="none" stroke="black" cx="74" cy="-180" rx="38.0212" ry="18"/>
<text text-anchor="middle" x="74" y="-176.3" font-family="Times,serif" font-size="14.00">Node A</text>
</g>
<!-- B -->
<g id="node2" class="node"><title>B</title>
<ellipse fill="none" stroke="black" cx="38" cy="-92" rx="38.0212" ry="18"/>
<text text-anchor="middle" x="38" y="-88.3" font-family="Times,serif" font-size="14.00">Node B</text>
</g>
<!-- A&#45;&gt;B -->
<g id="edge1" class="edge"><title>A&#45;&gt;B</title>
<path fill="none" stroke="black" d="M46.1597,-167.476C36.3872,-161.916 26.4855,-154.196 21,-144 16.6949,-135.998 18.1232,-126.706 21.5465,-118.263"/>
<polygon fill="black" stroke="black" points="24.7329,-119.716 26.0601,-109.204 18.4676,-116.594 24.7329,-119.716"/>
<text text-anchor="middle" x="68" y="-132.3" font-family="Times,serif" font-size="14.00">WRITE&#45;&gt;READ</text>
</g>
<!-- C -->
<g id="node3" class="node"><title>C</title>
<ellipse fill="none" stroke="black" cx="100" cy="-18" rx="27" ry="18"/>
<text text-anchor="middle" x="100" y="-14.3" font-family="Times,serif" font-size="14.00">C</text>
</g>
<!-- A&#45;&gt;C -->
<g id="edge2" class="edge"><title>A&#45;&gt;C</title>
<path fill="none" stroke="black" d="M96.7532,-165.317C103.967,-159.698 111.081,-152.499 115,-144 129.626,-112.285 120.149,-71.4618 110.961,-45.2569"/>
<polygon fill="black" stroke="black" points="114.151,-43.7937 107.374,-35.6496 107.593,-46.2422 114.151,-43.7937"/>
<text text-anchor="middle" x="141.5" y="-88.3" font-family="Times,serif" font-size="14.00">Edge 2</text>
</g>
<!-- B&#45;&gt;C -->
<g id="edge3" class="edge"><title>B&#45;&gt;C</title>
<path fill="none" stroke="black" d="M51.7598,-75.0209C60.1747,-65.2487 71.0746,-52.5907 80.384,-41.7799"/>
<polygon fill="black" stroke="black" points="83.2523,-43.8128 87.1253,-33.9512 77.9479,-39.2451 83.2523,-43.8128"/>
</g>
</g>
</svg>
